<svg width="105" height="96" viewBox="0 0 105 96" fill="none" xmlns="http://www.w3.org/2000/svg">
<rect x="0.5" y="0.5" width="104" height="95" stroke="#355239" stroke-dasharray="2 2"/>
<path d="M52.5 37.0625C54.2188 37.0625 55.6799 36.4607 56.8835 35.2571C58.0871 34.0536 58.6884 32.5928 58.6875 30.875C58.6875 29.1563 58.0857 27.6951 56.8821 26.4915C55.6785 25.2879 54.2178 24.6866 52.5 24.6875C50.7813 24.6875 49.3201 25.2893 48.1165 26.4929C46.9129 27.6965 46.3116 29.1572 46.3125 30.875C46.3125 32.5938 46.9143 34.0549 48.1179 35.2585C49.3215 36.4621 50.7822 37.0634 52.5 37.0625ZM41.5 41.875C40.7438 41.875 40.0961 41.6055 39.5571 41.0665C39.0181 40.5275 38.7491 39.8803 38.75 39.125V22.625C38.75 21.8688 39.0195 21.2211 39.5585 20.6821C40.0975 20.1431 40.7447 19.8741 41.5 19.875H45.8313L47.55 18.0188C47.8021 17.7208 48.106 17.4972 48.4616 17.3478C48.8173 17.1983 49.189 17.1241 49.5768 17.125H55.4205C55.8101 17.125 56.1827 17.1997 56.5384 17.3491C56.894 17.4986 57.1975 17.7218 57.4486 18.0188L59.1688 19.875H63.5C64.2563 19.875 64.9039 20.1445 65.4429 20.6835C65.9819 21.2225 66.2509 21.8697 66.25 22.625V39.125C66.25 39.8813 65.9805 40.5289 65.4415 41.0679C64.9025 41.6069 64.2553 41.8759 63.5 41.875H41.5Z" fill="#75B595"/>
<path d="M9.53857 52.9893L6.77734 61H5.10791L8.58643 51.7578H9.65283L9.53857 52.9893ZM11.8491 61L9.08154 52.9893L8.96094 51.7578H10.0337L13.5249 61H11.8491ZM11.7158 57.5723V58.8354H6.68848V57.5723H11.7158ZM18.5967 59.5781V51.25H20.1328V61H18.7427L18.5967 59.5781ZM14.1279 57.6421V57.5088C14.1279 56.9883 14.1893 56.5143 14.312 56.0869C14.4347 55.6553 14.6125 55.285 14.8452 54.9761C15.078 54.6629 15.3615 54.4238 15.6958 54.2588C16.0301 54.0895 16.4067 54.0049 16.8257 54.0049C17.2404 54.0049 17.6043 54.0853 17.9175 54.2461C18.2306 54.4069 18.4972 54.6375 18.7173 54.938C18.9373 55.2342 19.113 55.5897 19.2441 56.0044C19.3753 56.4149 19.4684 56.8719 19.5234 57.3755V57.8008C19.4684 58.2917 19.3753 58.7402 19.2441 59.1465C19.113 59.5527 18.9373 59.904 18.7173 60.2002C18.4972 60.4964 18.2285 60.7249 17.9111 60.8857C17.598 61.0465 17.2319 61.127 16.813 61.127C16.3983 61.127 16.0238 61.0402 15.6895 60.8667C15.3594 60.6932 15.078 60.4499 14.8452 60.1367C14.6125 59.8236 14.4347 59.4554 14.312 59.0322C14.1893 58.6048 14.1279 58.1414 14.1279 57.6421ZM15.6577 57.5088V57.6421C15.6577 57.9552 15.6852 58.2472 15.7402 58.5181C15.7995 58.7889 15.8905 59.028 16.0132 59.2354C16.1359 59.4385 16.2946 59.5993 16.4893 59.7178C16.6882 59.832 16.9251 59.8892 17.2002 59.8892C17.5472 59.8892 17.8328 59.813 18.0571 59.6606C18.2814 59.5083 18.457 59.3031 18.584 59.0449C18.7152 58.7826 18.804 58.4906 18.8506 58.1689V57.02C18.8252 56.7703 18.7723 56.5376 18.6919 56.3218C18.6157 56.106 18.512 55.9176 18.3809 55.7568C18.2497 55.5918 18.0868 55.4648 17.8921 55.376C17.7017 55.2829 17.4753 55.2363 17.2129 55.2363C16.9336 55.2363 16.6966 55.2956 16.502 55.4141C16.3073 55.5326 16.1465 55.6955 16.0195 55.9028C15.8968 56.1102 15.8058 56.3514 15.7466 56.6265C15.6873 56.9015 15.6577 57.1956 15.6577 57.5088ZM23.3701 54.1318V61H21.834V54.1318H23.3701ZM21.7324 52.3291C21.7324 52.0964 21.8086 51.9038 21.9609 51.7515C22.1175 51.5949 22.3333 51.5166 22.6084 51.5166C22.8792 51.5166 23.0929 51.5949 23.2495 51.7515C23.4061 51.9038 23.4844 52.0964 23.4844 52.3291C23.4844 52.5576 23.4061 52.748 23.2495 52.9004C23.0929 53.0527 22.8792 53.1289 22.6084 53.1289C22.3333 53.1289 22.1175 53.0527 21.9609 52.9004C21.8086 52.748 21.7324 52.5576 21.7324 52.3291ZM27.8516 59.9082C28.1012 59.9082 28.3255 59.8595 28.5244 59.7622C28.7275 59.6606 28.8905 59.521 29.0132 59.3433C29.1401 59.1655 29.21 58.9603 29.2227 58.7275H30.6636C30.6551 59.1719 30.5239 59.576 30.27 59.9399C30.0161 60.3039 29.6797 60.5938 29.2607 60.8096C28.8418 61.0212 28.3784 61.127 27.8706 61.127C27.3459 61.127 26.8888 61.0381 26.4995 60.8604C26.1102 60.6784 25.7865 60.4287 25.5283 60.1113C25.2702 59.7939 25.0755 59.4279 24.9443 59.0132C24.8174 58.5985 24.7539 58.1541 24.7539 57.6802V57.458C24.7539 56.984 24.8174 56.5397 24.9443 56.125C25.0755 55.7061 25.2702 55.3379 25.5283 55.0205C25.7865 54.7031 26.1102 54.4556 26.4995 54.2778C26.8888 54.0959 27.3438 54.0049 27.8643 54.0049C28.4144 54.0049 28.8968 54.1149 29.3115 54.335C29.7262 54.5508 30.0521 54.8534 30.2891 55.2427C30.5303 55.6278 30.6551 56.0763 30.6636 56.5884H29.2227C29.21 56.3345 29.1465 56.106 29.0322 55.9028C28.9222 55.6955 28.7656 55.5304 28.5625 55.4077C28.3636 55.285 28.1245 55.2236 27.8452 55.2236C27.5363 55.2236 27.2803 55.2871 27.0771 55.4141C26.874 55.5368 26.7153 55.7061 26.6011 55.9219C26.4868 56.1335 26.4043 56.3726 26.3535 56.6392C26.307 56.9015 26.2837 57.1745 26.2837 57.458V57.6802C26.2837 57.9637 26.307 58.2388 26.3535 58.5054C26.4001 58.772 26.4805 59.0111 26.5947 59.2227C26.7132 59.43 26.874 59.5972 27.0771 59.7241C27.2803 59.8468 27.5384 59.9082 27.8516 59.9082ZM33.4756 54.1318V61H31.9395V54.1318H33.4756ZM31.8379 52.3291C31.8379 52.0964 31.9141 51.9038 32.0664 51.7515C32.223 51.5949 32.4388 51.5166 32.7139 51.5166C32.9847 51.5166 33.1984 51.5949 33.355 51.7515C33.5116 51.9038 33.5898 52.0964 33.5898 52.3291C33.5898 52.5576 33.5116 52.748 33.355 52.9004C33.1984 53.0527 32.9847 53.1289 32.7139 53.1289C32.4388 53.1289 32.223 53.0527 32.0664 52.9004C31.9141 52.748 31.8379 52.5576 31.8379 52.3291ZM34.8594 57.6421V57.4961C34.8594 57.001 34.9313 56.5418 35.0752 56.1187C35.2191 55.6912 35.4264 55.321 35.6973 55.0078C35.9723 54.6904 36.3066 54.445 36.7002 54.2715C37.098 54.0938 37.5465 54.0049 38.0459 54.0049C38.5495 54.0049 38.998 54.0938 39.3916 54.2715C39.7894 54.445 40.1258 54.6904 40.4009 55.0078C40.6759 55.321 40.8854 55.6912 41.0293 56.1187C41.1732 56.5418 41.2451 57.001 41.2451 57.4961V57.6421C41.2451 58.1372 41.1732 58.5964 41.0293 59.0195C40.8854 59.4427 40.6759 59.813 40.4009 60.1304C40.1258 60.4435 39.7915 60.689 39.3979 60.8667C39.0044 61.0402 38.5579 61.127 38.0586 61.127C37.555 61.127 37.1043 61.0402 36.7065 60.8667C36.313 60.689 35.9787 60.4435 35.7036 60.1304C35.4285 59.813 35.2191 59.4427 35.0752 59.0195C34.9313 58.5964 34.8594 58.1372 34.8594 57.6421ZM36.3892 57.4961V57.6421C36.3892 57.951 36.4209 58.243 36.4844 58.5181C36.5479 58.7931 36.6473 59.0343 36.7827 59.2417C36.9181 59.4491 37.0916 59.612 37.3032 59.7305C37.5148 59.849 37.7666 59.9082 38.0586 59.9082C38.3421 59.9082 38.5876 59.849 38.7949 59.7305C39.0065 59.612 39.18 59.4491 39.3154 59.2417C39.4508 59.0343 39.5503 58.7931 39.6138 58.5181C39.6815 58.243 39.7153 57.951 39.7153 57.6421V57.4961C39.7153 57.1914 39.6815 56.9036 39.6138 56.6328C39.5503 56.3577 39.4487 56.1144 39.3091 55.9028C39.1737 55.6912 39.0002 55.5262 38.7886 55.4077C38.5812 55.285 38.3337 55.2236 38.0459 55.2236C37.7581 55.2236 37.5085 55.285 37.2969 55.4077C37.0895 55.5262 36.9181 55.6912 36.7827 55.9028C36.6473 56.1144 36.5479 56.3577 36.4844 56.6328C36.4209 56.9036 36.3892 57.1914 36.3892 57.4961ZM44.0444 55.5981V61H42.5146V54.1318H43.9556L44.0444 55.5981ZM43.7715 57.312L43.2764 57.3057C43.2806 56.819 43.3483 56.3726 43.4795 55.9663C43.6149 55.5601 43.8011 55.2109 44.0381 54.9189C44.2793 54.627 44.5671 54.4027 44.9014 54.2461C45.2357 54.0853 45.6081 54.0049 46.0186 54.0049C46.3486 54.0049 46.647 54.0514 46.9136 54.1445C47.1844 54.2334 47.415 54.3794 47.6055 54.5825C47.8001 54.7856 47.9482 55.0501 48.0498 55.376C48.1514 55.6976 48.2021 56.0933 48.2021 56.563V61H46.666V56.5566C46.666 56.2266 46.6174 55.9663 46.52 55.7759C46.4269 55.5812 46.2894 55.4437 46.1074 55.3633C45.9297 55.2786 45.7075 55.2363 45.4409 55.2363C45.1785 55.2363 44.9437 55.2913 44.7363 55.4014C44.529 55.5114 44.3534 55.6616 44.2095 55.8521C44.0698 56.0425 43.9619 56.2625 43.8857 56.5122C43.8096 56.7619 43.7715 57.0285 43.7715 57.312ZM53.6357 59.6226V56.3472C53.6357 56.1017 53.5913 55.8901 53.5024 55.7124C53.4136 55.5347 53.2782 55.3971 53.0962 55.2998C52.9185 55.2025 52.6942 55.1538 52.4233 55.1538C52.1737 55.1538 51.9578 55.1961 51.7759 55.2808C51.5939 55.3654 51.4521 55.4797 51.3506 55.6235C51.249 55.7674 51.1982 55.9303 51.1982 56.1123H49.6748C49.6748 55.8415 49.7404 55.5791 49.8716 55.3252C50.0028 55.0713 50.1932 54.8449 50.4429 54.646C50.6925 54.4471 50.9909 54.2905 51.3379 54.1763C51.6849 54.062 52.0742 54.0049 52.5059 54.0049C53.0221 54.0049 53.4792 54.0916 53.877 54.2651C54.279 54.4386 54.5942 54.701 54.8228 55.0522C55.0555 55.3993 55.1719 55.8351 55.1719 56.3599V59.4131C55.1719 59.7262 55.193 60.0076 55.2354 60.2573C55.2819 60.5028 55.3475 60.7165 55.4321 60.8984V61H53.8643C53.7923 60.835 53.7352 60.6255 53.6929 60.3716C53.6548 60.1134 53.6357 59.8638 53.6357 59.6226ZM53.8579 56.8232L53.8706 57.769H52.7725C52.4889 57.769 52.2393 57.7965 52.0234 57.8516C51.8076 57.9023 51.6278 57.9785 51.4839 58.0801C51.34 58.1816 51.2321 58.3044 51.1602 58.4482C51.0882 58.5921 51.0522 58.755 51.0522 58.937C51.0522 59.119 51.0946 59.2861 51.1792 59.4385C51.2638 59.5866 51.3866 59.703 51.5474 59.7876C51.7124 59.8722 51.9113 59.9146 52.144 59.9146C52.4572 59.9146 52.7301 59.8511 52.9629 59.7241C53.1999 59.5929 53.3861 59.4342 53.5215 59.248C53.6569 59.0576 53.7288 58.8778 53.7373 58.7085L54.2324 59.3877C54.1816 59.5612 54.0949 59.7474 53.9722 59.9463C53.8494 60.1452 53.6886 60.3356 53.4897 60.5176C53.2951 60.6953 53.0602 60.8413 52.7852 60.9556C52.5143 61.0698 52.2012 61.127 51.8457 61.127C51.3971 61.127 50.9972 61.0381 50.646 60.8604C50.2948 60.6784 50.0197 60.4351 49.8208 60.1304C49.6219 59.8215 49.5225 59.4723 49.5225 59.083C49.5225 58.7191 49.5902 58.3975 49.7256 58.1182C49.8652 57.8346 50.0684 57.5977 50.335 57.4072C50.6058 57.2168 50.9359 57.0729 51.3252 56.9756C51.7145 56.874 52.1589 56.8232 52.6582 56.8232H53.8579ZM58.3076 55.4395V61H56.7778V54.1318H58.2378L58.3076 55.4395ZM60.4087 54.0874L60.396 55.5093C60.3029 55.4924 60.2013 55.4797 60.0913 55.4712C59.9855 55.4627 59.8797 55.4585 59.7739 55.4585C59.5116 55.4585 59.2809 55.4966 59.082 55.5728C58.8831 55.6447 58.716 55.7505 58.5806 55.8901C58.4494 56.0256 58.3478 56.1906 58.2759 56.3853C58.2039 56.5799 58.1616 56.7979 58.1489 57.0391L57.7998 57.0645C57.7998 56.6328 57.8421 56.2329 57.9268 55.8647C58.0114 55.4966 58.1383 55.1729 58.3076 54.8936C58.4811 54.6143 58.6969 54.3963 58.9551 54.2397C59.2174 54.0832 59.52 54.0049 59.8628 54.0049C59.9559 54.0049 60.0553 54.0133 60.1611 54.0303C60.2712 54.0472 60.3537 54.0662 60.4087 54.0874ZM66.6738 61H65.144V53.4717C65.144 52.9596 65.2393 52.5301 65.4297 52.1831C65.6243 51.8319 65.9015 51.5674 66.2612 51.3896C66.6209 51.2077 67.0462 51.1167 67.5371 51.1167C67.6895 51.1167 67.8397 51.1273 67.9878 51.1484C68.1359 51.1654 68.2798 51.1929 68.4194 51.231L68.3813 52.4116C68.2967 52.3905 68.2036 52.3757 68.1021 52.3672C68.0047 52.3587 67.8989 52.3545 67.7847 52.3545C67.5519 52.3545 67.3509 52.3989 67.1816 52.4878C67.0166 52.5724 66.8896 52.6973 66.8008 52.8623C66.7161 53.0273 66.6738 53.2305 66.6738 53.4717V61ZM68.0894 54.1318V55.249H64.0903V54.1318H68.0894ZM68.9082 57.6421V57.4961C68.9082 57.001 68.9801 56.5418 69.124 56.1187C69.2679 55.6912 69.4753 55.321 69.7461 55.0078C70.0212 54.6904 70.3555 54.445 70.749 54.2715C71.1468 54.0938 71.5954 54.0049 72.0947 54.0049C72.5983 54.0049 73.0469 54.0938 73.4404 54.2715C73.8382 54.445 74.1746 54.6904 74.4497 55.0078C74.7248 55.321 74.9342 55.6912 75.0781 56.1187C75.222 56.5418 75.2939 57.001 75.2939 57.4961V57.6421C75.2939 58.1372 75.222 58.5964 75.0781 59.0195C74.9342 59.4427 74.7248 59.813 74.4497 60.1304C74.1746 60.4435 73.8403 60.689 73.4468 60.8667C73.0532 61.0402 72.6068 61.127 72.1074 61.127C71.6038 61.127 71.1532 61.0402 70.7554 60.8667C70.3618 60.689 70.0275 60.4435 69.7524 60.1304C69.4774 59.813 69.2679 59.4427 69.124 59.0195C68.9801 58.5964 68.9082 58.1372 68.9082 57.6421ZM70.438 57.4961V57.6421C70.438 57.951 70.4697 58.243 70.5332 58.5181C70.5967 58.7931 70.6961 59.0343 70.8315 59.2417C70.967 59.4491 71.1405 59.612 71.3521 59.7305C71.5636 59.849 71.8154 59.9082 72.1074 59.9082C72.391 59.9082 72.6364 59.849 72.8438 59.7305C73.0553 59.612 73.2288 59.4491 73.3643 59.2417C73.4997 59.0343 73.5991 58.7931 73.6626 58.5181C73.7303 58.243 73.7642 57.951 73.7642 57.6421V57.4961C73.7642 57.1914 73.7303 56.9036 73.6626 56.6328C73.5991 56.3577 73.4976 56.1144 73.3579 55.9028C73.2225 55.6912 73.049 55.5262 72.8374 55.4077C72.63 55.285 72.3825 55.2236 72.0947 55.2236C71.807 55.2236 71.5573 55.285 71.3457 55.4077C71.1383 55.5262 70.967 55.6912 70.8315 55.9028C70.6961 56.1144 70.5967 56.3577 70.5332 56.6328C70.4697 56.9036 70.438 57.1914 70.438 57.4961ZM79.7246 54.1318V55.249H75.8525V54.1318H79.7246ZM76.9697 52.4497H78.4995V59.1021C78.4995 59.3136 78.5291 59.4766 78.5884 59.5908C78.6519 59.7008 78.7386 59.7749 78.8486 59.813C78.9587 59.8511 79.0877 59.8701 79.2358 59.8701C79.3416 59.8701 79.4432 59.8638 79.5405 59.8511C79.6379 59.8384 79.7161 59.8257 79.7754 59.813L79.7817 60.981C79.6548 61.019 79.5067 61.0529 79.3374 61.0825C79.1724 61.1121 78.9819 61.127 78.7661 61.127C78.4149 61.127 78.1038 61.0656 77.833 60.9429C77.5622 60.8159 77.3506 60.6107 77.1982 60.3271C77.0459 60.0436 76.9697 59.667 76.9697 59.1973V52.4497ZM80.4609 57.6421V57.4961C80.4609 57.001 80.5329 56.5418 80.6768 56.1187C80.8206 55.6912 81.028 55.321 81.2988 55.0078C81.5739 54.6904 81.9082 54.445 82.3018 54.2715C82.6995 54.0938 83.1481 54.0049 83.6475 54.0049C84.151 54.0049 84.5996 54.0938 84.9932 54.2715C85.391 54.445 85.7274 54.6904 86.0024 55.0078C86.2775 55.321 86.487 55.6912 86.6309 56.1187C86.7747 56.5418 86.8467 57.001 86.8467 57.4961V57.6421C86.8467 58.1372 86.7747 58.5964 86.6309 59.0195C86.487 59.4427 86.2775 59.813 86.0024 60.1304C85.7274 60.4435 85.3931 60.689 84.9995 60.8667C84.606 61.0402 84.1595 61.127 83.6602 61.127C83.1566 61.127 82.7059 61.0402 82.3081 60.8667C81.9146 60.689 81.5802 60.4435 81.3052 60.1304C81.0301 59.813 80.8206 59.4427 80.6768 59.0195C80.5329 58.5964 80.4609 58.1372 80.4609 57.6421ZM81.9907 57.4961V57.6421C81.9907 57.951 82.0225 58.243 82.0859 58.5181C82.1494 58.7931 82.2489 59.0343 82.3843 59.2417C82.5197 59.4491 82.6932 59.612 82.9048 59.7305C83.1164 59.849 83.3682 59.9082 83.6602 59.9082C83.9437 59.9082 84.1891 59.849 84.3965 59.7305C84.6081 59.612 84.7816 59.4491 84.917 59.2417C85.0524 59.0343 85.1519 58.7931 85.2153 58.5181C85.283 58.243 85.3169 57.951 85.3169 57.6421V57.4961C85.3169 57.1914 85.283 56.9036 85.2153 56.6328C85.1519 56.3577 85.0503 56.1144 84.9106 55.9028C84.7752 55.6912 84.6017 55.5262 84.3901 55.4077C84.1828 55.285 83.9352 55.2236 83.6475 55.2236C83.3597 55.2236 83.11 55.285 82.8984 55.4077C82.6911 55.5262 82.5197 55.6912 82.3843 55.9028C82.2489 56.1144 82.1494 56.3577 82.0859 56.6328C82.0225 56.9036 81.9907 57.1914 81.9907 57.4961ZM91.9819 59.1401C91.9819 58.9878 91.9438 58.8503 91.8677 58.7275C91.7915 58.6006 91.6455 58.4863 91.4297 58.3848C91.2181 58.2832 90.9049 58.1901 90.4902 58.1055C90.1263 58.0251 89.792 57.9299 89.4873 57.8198C89.1868 57.7056 88.9287 57.568 88.7129 57.4072C88.4971 57.2464 88.3299 57.056 88.2114 56.8359C88.0929 56.6159 88.0337 56.362 88.0337 56.0742C88.0337 55.7949 88.0951 55.5304 88.2178 55.2808C88.3405 55.0311 88.5161 54.811 88.7446 54.6206C88.9731 54.4302 89.2503 54.2799 89.5762 54.1699C89.9062 54.0599 90.2744 54.0049 90.6807 54.0049C91.2562 54.0049 91.7492 54.1022 92.1597 54.2969C92.5744 54.4873 92.8918 54.7476 93.1118 55.0776C93.3319 55.4035 93.4419 55.7716 93.4419 56.1821H91.9121C91.9121 56.0002 91.8656 55.8309 91.7725 55.6743C91.6836 55.5135 91.5482 55.3844 91.3662 55.2871C91.1842 55.1855 90.9557 55.1348 90.6807 55.1348C90.4183 55.1348 90.2004 55.1771 90.0269 55.2617C89.8576 55.3421 89.7306 55.4479 89.646 55.5791C89.5656 55.7103 89.5254 55.8542 89.5254 56.0107C89.5254 56.125 89.5465 56.2287 89.5889 56.3218C89.6354 56.4106 89.7116 56.4932 89.8174 56.5693C89.9232 56.6413 90.0671 56.709 90.249 56.7725C90.4352 56.8359 90.668 56.8973 90.9473 56.9565C91.472 57.0666 91.9227 57.2083 92.2993 57.3818C92.6802 57.5511 92.9722 57.7712 93.1753 58.042C93.3784 58.3086 93.48 58.6471 93.48 59.0576C93.48 59.3623 93.4144 59.6416 93.2832 59.8955C93.1562 60.1452 92.9701 60.3631 92.7246 60.5493C92.4792 60.7313 92.1851 60.873 91.8423 60.9746C91.5037 61.0762 91.1229 61.127 90.6997 61.127C90.0776 61.127 89.5508 61.0169 89.1191 60.7969C88.6875 60.5726 88.3595 60.2869 88.1353 59.9399C87.9152 59.5887 87.8052 59.2248 87.8052 58.8481H89.2842C89.3011 59.1317 89.3794 59.3581 89.519 59.5273C89.6629 59.6924 89.8407 59.813 90.0522 59.8892C90.2681 59.9611 90.4902 59.9971 90.7188 59.9971C90.9938 59.9971 91.2244 59.9611 91.4106 59.8892C91.5968 59.813 91.7386 59.7114 91.8359 59.5845C91.9333 59.4533 91.9819 59.3052 91.9819 59.1401Z" fill="#355239"/>
<path d="M26.043 79.8809V74.8906H26.6436V79.8809C26.6436 80.3594 26.5492 80.763 26.3604 81.0918C26.1748 81.4206 25.9209 81.6712 25.5986 81.8438C25.2764 82.013 24.9085 82.0977 24.4951 82.0977C24.0719 82.0977 23.6976 82.0228 23.3721 81.873C23.0498 81.7233 22.7992 81.4971 22.6201 81.1943C22.4411 80.8883 22.3516 80.5026 22.3516 80.0371H22.9521C22.9521 80.3789 23.0124 80.6654 23.1328 80.8965C23.2565 81.1243 23.4339 81.2969 23.665 81.4141C23.8962 81.528 24.1729 81.585 24.4951 81.585C24.7848 81.585 25.0452 81.5215 25.2764 81.3945C25.5107 81.2643 25.6963 81.0739 25.833 80.8232C25.973 80.5693 26.043 80.2552 26.043 79.8809ZM30.8281 79.1045H28.8018V78.5918H30.8281C31.2513 78.5918 31.5947 78.5234 31.8584 78.3867C32.1253 78.2467 32.319 78.0579 32.4395 77.8203C32.5632 77.5827 32.625 77.3158 32.625 77.0195C32.625 76.7298 32.5632 76.4629 32.4395 76.2188C32.319 75.9746 32.1253 75.7793 31.8584 75.6328C31.5947 75.4831 31.2513 75.4082 30.8281 75.4082H29.0117V82H28.4111V74.8906H30.8281C31.349 74.8906 31.7868 74.9801 32.1416 75.1592C32.4997 75.3382 32.7699 75.5872 32.9521 75.9062C33.1344 76.2253 33.2256 76.5931 33.2256 77.0098C33.2256 77.446 33.1344 77.8219 32.9521 78.1377C32.7699 78.4502 32.5013 78.6895 32.1465 78.8555C31.7917 79.0215 31.3522 79.1045 30.8281 79.1045ZM39.7002 78.6211V81.1504C39.6188 81.2708 39.4788 81.4043 39.2803 81.5508C39.0817 81.6973 38.8148 81.8258 38.4795 81.9365C38.1442 82.0439 37.7275 82.0977 37.2295 82.0977C36.8128 82.0977 36.4303 82.0228 36.082 81.873C35.7337 81.7233 35.431 81.5068 35.1738 81.2236C34.9199 80.9372 34.723 80.5938 34.583 80.1934C34.4463 79.793 34.3779 79.3438 34.3779 78.8457V77.9863C34.3779 77.498 34.4414 77.0586 34.5684 76.668C34.6953 76.2741 34.8792 75.9372 35.1201 75.6572C35.361 75.3773 35.6507 75.1641 35.9893 75.0176C36.3311 74.8678 36.7135 74.793 37.1367 74.793C37.6641 74.793 38.1084 74.8841 38.4697 75.0664C38.8311 75.2487 39.1126 75.4993 39.3145 75.8184C39.5195 76.1341 39.6465 76.4922 39.6953 76.8926H39.0947C39.0492 76.6094 38.9548 76.349 38.8115 76.1113C38.6683 75.8704 38.46 75.6768 38.1865 75.5303C37.9163 75.3838 37.5664 75.3105 37.1367 75.3105C36.7917 75.3105 36.484 75.374 36.2139 75.501C35.9469 75.6279 35.7223 75.8086 35.54 76.043C35.3577 76.2773 35.2194 76.5589 35.125 76.8877C35.0306 77.2132 34.9834 77.5762 34.9834 77.9766V78.8457C34.9834 79.2624 35.0355 79.6383 35.1396 79.9736C35.2471 80.3089 35.4001 80.597 35.5986 80.8379C35.7972 81.0788 36.0348 81.2643 36.3115 81.3945C36.5882 81.5215 36.8958 81.585 37.2344 81.585C37.5957 81.585 37.9033 81.5508 38.1572 81.4824C38.4111 81.4141 38.6146 81.3327 38.7676 81.2383C38.9238 81.1406 39.0361 81.0495 39.1045 80.9648V79.1338H37.1953V78.6211H39.7002ZM43.4014 79.4414V79.2803C43.4014 78.8962 43.4567 78.5413 43.5674 78.2158C43.6781 77.8903 43.8359 77.6087 44.041 77.3711C44.2493 77.1335 44.4984 76.9495 44.7881 76.8193C45.0778 76.6859 45.4001 76.6191 45.7549 76.6191C46.113 76.6191 46.4368 76.6859 46.7266 76.8193C47.0163 76.9495 47.2653 77.1335 47.4736 77.3711C47.682 77.6087 47.8415 77.8903 47.9521 78.2158C48.0628 78.5413 48.1182 78.8962 48.1182 79.2803V79.4414C48.1182 79.8255 48.0628 80.1803 47.9521 80.5059C47.8415 80.8281 47.682 81.1081 47.4736 81.3457C47.2686 81.5833 47.0212 81.7689 46.7314 81.9023C46.4417 82.0326 46.1195 82.0977 45.7646 82.0977C45.4066 82.0977 45.0827 82.0326 44.793 81.9023C44.5033 81.7689 44.2542 81.5833 44.0459 81.3457C43.8376 81.1081 43.6781 80.8281 43.5674 80.5059C43.4567 80.1803 43.4014 79.8255 43.4014 79.4414ZM43.9824 79.2803V79.4414C43.9824 79.7311 44.0215 80.0062 44.0996 80.2666C44.1777 80.5238 44.2917 80.7533 44.4414 80.9551C44.5911 81.1536 44.7767 81.3099 44.998 81.4238C45.2194 81.5378 45.4749 81.5947 45.7646 81.5947C46.0511 81.5947 46.3034 81.5378 46.5215 81.4238C46.7428 81.3099 46.9284 81.1536 47.0781 80.9551C47.2279 80.7533 47.3402 80.5238 47.415 80.2666C47.4932 80.0062 47.5322 79.7311 47.5322 79.4414V79.2803C47.5322 78.9938 47.4932 78.722 47.415 78.4648C47.3402 78.2077 47.2262 77.9782 47.0732 77.7764C46.9235 77.5745 46.738 77.415 46.5166 77.2979C46.2952 77.1807 46.0413 77.1221 45.7549 77.1221C45.4684 77.1221 45.2145 77.1807 44.9932 77.2979C44.7751 77.415 44.5895 77.5745 44.4365 77.7764C44.2868 77.9782 44.1729 78.2077 44.0947 78.4648C44.0199 78.722 43.9824 78.9938 43.9824 79.2803ZM52.7129 80.7793V76.7168H53.2988V82H52.7373L52.7129 80.7793ZM52.8203 79.8027L53.123 79.793C53.123 80.125 53.084 80.431 53.0059 80.7109C52.9277 80.9909 52.8057 81.235 52.6396 81.4434C52.4736 81.6517 52.2588 81.8128 51.9951 81.9268C51.7314 82.0407 51.4141 82.0977 51.043 82.0977C50.7858 82.0977 50.5498 82.0618 50.335 81.9902C50.1234 81.9154 49.9411 81.7982 49.7881 81.6387C49.6351 81.4792 49.5163 81.2725 49.4316 81.0186C49.3503 80.7646 49.3096 80.457 49.3096 80.0957V76.7168H49.8906V80.1055C49.8906 80.3887 49.9215 80.6247 49.9834 80.8135C50.0485 81.0023 50.1364 81.1536 50.2471 81.2676C50.361 81.3815 50.4912 81.4629 50.6377 81.5117C50.7842 81.5605 50.9421 81.585 51.1113 81.585C51.541 81.585 51.8796 81.502 52.127 81.3359C52.3776 81.1699 52.555 80.9518 52.6592 80.6816C52.7666 80.4082 52.8203 80.1152 52.8203 79.8027ZM59.8223 79.1045H57.7959V78.5918H59.8223C60.2454 78.5918 60.5889 78.5234 60.8525 78.3867C61.1195 78.2467 61.3132 78.0579 61.4336 77.8203C61.5573 77.5827 61.6191 77.3158 61.6191 77.0195C61.6191 76.7298 61.5573 76.4629 61.4336 76.2188C61.3132 75.9746 61.1195 75.7793 60.8525 75.6328C60.5889 75.4831 60.2454 75.4082 59.8223 75.4082H58.0059V82H57.4053V74.8906H59.8223C60.3431 74.8906 60.7809 74.9801 61.1357 75.1592C61.4938 75.3382 61.764 75.5872 61.9463 75.9062C62.1286 76.2253 62.2197 76.5931 62.2197 77.0098C62.2197 77.446 62.1286 77.8219 61.9463 78.1377C61.764 78.4502 61.4954 78.6895 61.1406 78.8555C60.7858 79.0215 60.3464 79.1045 59.8223 79.1045ZM68.8604 74.8906V82H68.2549L64.168 75.9258V82H63.5674V74.8906H64.168L68.2646 80.9648V74.8906H68.8604ZM75.8037 78.6211V81.1504C75.7223 81.2708 75.5824 81.4043 75.3838 81.5508C75.1852 81.6973 74.9183 81.8258 74.583 81.9365C74.2477 82.0439 73.8311 82.0977 73.333 82.0977C72.9163 82.0977 72.5339 82.0228 72.1855 81.873C71.8372 81.7233 71.5345 81.5068 71.2773 81.2236C71.0234 80.9372 70.8265 80.5938 70.6865 80.1934C70.5498 79.793 70.4814 79.3438 70.4814 78.8457V77.9863C70.4814 77.498 70.5449 77.0586 70.6719 76.668C70.7988 76.2741 70.9827 75.9372 71.2236 75.6572C71.4645 75.3773 71.7542 75.1641 72.0928 75.0176C72.4346 74.8678 72.8171 74.793 73.2402 74.793C73.7676 74.793 74.2119 74.8841 74.5732 75.0664C74.9346 75.2487 75.2161 75.4993 75.418 75.8184C75.623 76.1341 75.75 76.4922 75.7988 76.8926H75.1982C75.1527 76.6094 75.0583 76.349 74.915 76.1113C74.7718 75.8704 74.5635 75.6768 74.29 75.5303C74.0199 75.3838 73.6699 75.3105 73.2402 75.3105C72.8952 75.3105 72.5876 75.374 72.3174 75.501C72.0505 75.6279 71.8258 75.8086 71.6436 76.043C71.4613 76.2773 71.3229 76.5589 71.2285 76.8877C71.1341 77.2132 71.0869 77.5762 71.0869 77.9766V78.8457C71.0869 79.2624 71.139 79.6383 71.2432 79.9736C71.3506 80.3089 71.5036 80.597 71.7021 80.8379C71.9007 81.0788 72.1383 81.2643 72.415 81.3945C72.6917 81.5215 72.9993 81.585 73.3379 81.585C73.6992 81.585 74.0068 81.5508 74.2607 81.4824C74.5146 81.4141 74.7181 81.3327 74.8711 81.2383C75.0273 81.1406 75.1396 81.0495 75.208 80.9648V79.1338H73.2988V78.6211H75.8037Z" fill="#355239"/>
</svg>
